<svg xmlns="http://www.w3.org/2000/svg" viewBox="0 0 32 32" fill="none">
  <!-- Store building with R roof -->
  <rect x="4" y="14" width="24" height="14" rx="2" fill="#2563EB"/>
  <!-- Roof forming letter R -->
  <path d="M2 14 L16 4 L30 14 Z" fill="#1D4ED8"/>
  <!-- R shape suggestion in roof -->
  <path d="M13 8 L13 13 M13 8 L16 8 Q18 8 18 10 Q18 12 16 12 L13 12 M16 12 L18 13" stroke="white" stroke-width="1.5" stroke-linecap="round"/>
  <!-- Door -->
  <rect x="13" y="20" width="6" height="8" rx="1" fill="#BFDBFE"/>
  <!-- Windows -->
  <rect x="6" y="17" width="5" height="4" rx="1" fill="#BFDBFE"/>
  <rect x="21" y="17" width="5" height="4" rx="1" fill="#BFDBFE"/>
  <!-- Star -->
  <path d="M16 1 L17.2 4.6 L21 4.6 L18 6.8 L19.1 10.4 L16 8.2 L12.9 10.4 L14 6.8 L11 4.6 L14.8 4.6 Z" fill="#FBBF24"/>
</svg>
